# xmcd CD database file generated by OrangeCD 6.1
#
# Track frame offsets:
#	165
#	15997
#	33782
#	46291
#	59011
#	75102
#	90715
#	103857
#	120143
#	130432
#
# Disc length: 1935 seconds
#
# Revision: 2
# Processed by: cddbd v1.5.2PL0 Copyright (c) Steve Scherf et al.
# Submitted via: OrangeCD 6.1
#
DISCID=6e078d0a
DTITLE=The Crabb Family - Best Of The Crabb Family
DYEAR=1900
DGENRE=Gospel
TTITLE0=Trail Of Tears
TTITLE1=Two Little Feet
TTITLE2=The Lamb, The Lion And The King
TTITLE3=He's Father To Me
TTITLE4=No Hearse At My Front Door
TTITLE5=God's Barrel Don't Run Dry
TTITLE6=Since I've Started Walking With Him
TTITLE7=Please Forgive Me
TTITLE8=I'm Running On
TTITLE9=He Made The Son Rise For Me
EXTD=
EXTT0=
EXTT1=
EXTT2=
EXTT3=
EXTT4=
EXTT5=
EXTT6=
EXTT7=
EXTT8=
EXTT9=
PLAYORDER=
